<svg width="25" height="25" viewBox="0 0 25 25" fill="none" xmlns="http://www.w3.org/2000/svg">
<path d="M12.0168 2C14.7376 2 15.077 2.01001 16.1445 2.06008C17.211 2.11015 17.937 2.27738 18.5759 2.52573C19.2368 2.78008 19.7936 3.12456 20.3504 3.68033C20.8596 4.18092 21.2536 4.78645 21.505 5.45479C21.7523 6.09268 21.9205 6.81969 21.9706 7.88617C22.0177 8.95365 22.0307 9.29312 22.0307 12.0139C22.0307 14.7347 22.0207 15.0741 21.9706 16.1416C21.9205 17.2081 21.7523 17.9341 21.505 18.573C21.2543 19.2417 20.8602 19.8474 20.3504 20.3475C19.8496 20.8565 19.2441 21.2505 18.5759 21.5021C17.938 21.7494 17.211 21.9176 16.1445 21.9677C15.077 22.0148 14.7376 22.0278 12.0168 22.0278C9.29604 22.0278 8.95657 22.0178 7.88909 21.9677C6.82261 21.9176 6.0966 21.7494 5.45772 21.5021C4.78912 21.2512 4.18348 20.8571 3.68326 20.3475C3.17396 19.8469 2.77994 19.2414 2.52866 18.573C2.28031 17.9351 2.11308 17.2081 2.06301 16.1416C2.01595 15.0741 2.00293 14.7347 2.00293 12.0139C2.00293 9.29312 2.01294 8.95365 2.06301 7.88617C2.11308 6.81869 2.28031 6.09368 2.52866 5.45479C2.77924 4.78604 3.17336 4.18035 3.68326 3.68033C4.18362 3.17086 4.78922 2.77681 5.45772 2.52573C6.0966 2.27738 6.82161 2.11015 7.88909 2.06008C8.95657 2.01302 9.29604 2 12.0168 2ZM12.0168 7.00695C10.6889 7.00695 9.41535 7.53446 8.47637 8.47345C7.53738 9.41243 7.00987 10.686 7.00987 12.0139C7.00987 13.3418 7.53738 14.6154 8.47637 15.5543C9.41535 16.4933 10.6889 17.0208 12.0168 17.0208C13.3447 17.0208 14.6183 16.4933 15.5572 15.5543C16.4962 14.6154 17.0237 13.3418 17.0237 12.0139C17.0237 10.686 16.4962 9.41243 15.5572 8.47345C14.6183 7.53446 13.3447 7.00695 12.0168 7.00695ZM18.5258 6.7566C18.5258 6.42462 18.394 6.10623 18.1592 5.87149C17.9245 5.63674 17.6061 5.50486 17.2741 5.50486C16.9421 5.50486 16.6237 5.63674 16.389 5.87149C16.1542 6.10623 16.0224 6.42462 16.0224 6.7566C16.0224 7.08858 16.1542 7.40696 16.389 7.64171C16.6237 7.87646 16.9421 8.00834 17.2741 8.00834C17.6061 8.00834 17.9245 7.87646 18.1592 7.64171C18.394 7.40696 18.5258 7.08858 18.5258 6.7566ZM12.0168 9.00972C12.8136 9.00972 13.5777 9.32623 14.1411 9.88963C14.7045 10.453 15.021 11.2171 15.021 12.0139C15.021 12.8106 14.7045 13.5748 14.1411 14.1382C13.5777 14.7016 12.8136 15.0181 12.0168 15.0181C11.2201 15.0181 10.4559 14.7016 9.89254 14.1382C9.32915 13.5748 9.01264 12.8106 9.01264 12.0139C9.01264 11.2171 9.32915 10.453 9.89254 9.88963C10.4559 9.32623 11.2201 9.00973 12.0168 9.00972Z" fill="#275CBE"/>
</svg>
