<svg width="25" height="25" viewBox="0 0 25 25" fill="none" xmlns="http://www.w3.org/2000/svg">
<path d="M20.094 1.75C20.6841 1.75 21.2502 1.98445 21.6675 2.40178C22.0848 2.8191 22.3193 3.38512 22.3193 3.97531V19.5525C22.3193 20.1427 22.0848 20.7087 21.6675 21.126C21.2502 21.5433 20.6841 21.7778 20.094 21.7778H4.51681C3.92662 21.7778 3.36061 21.5433 2.94328 21.126C2.52596 20.7087 2.2915 20.1427 2.2915 19.5525V3.97531C2.2915 3.38512 2.52596 2.8191 2.94328 2.40178C3.36061 1.98445 3.92662 1.75 4.51681 1.75H20.094ZM19.5376 18.9961V13.0991C19.5376 12.1371 19.1555 11.2145 18.4752 10.5342C17.795 9.85398 16.8724 9.47182 15.9104 9.47182C14.9646 9.47182 13.8631 10.0504 13.329 10.9183V9.68323H10.2247V18.9961H13.329V13.5108C13.329 12.654 14.0189 11.953 14.8756 11.953C15.2887 11.953 15.685 12.1172 15.9771 12.4093C16.2692 12.7014 16.4333 13.0976 16.4333 13.5108V18.9961H19.5376ZM6.6086 7.93636C7.10436 7.93636 7.57981 7.73942 7.93036 7.38887C8.28092 7.03831 8.47786 6.56286 8.47786 6.0671C8.47786 5.03233 7.64337 4.18671 6.6086 4.18671C6.10989 4.18671 5.63161 4.38483 5.27897 4.73747C4.92633 5.09011 4.72821 5.56839 4.72821 6.0671C4.72821 7.10187 5.57383 7.93636 6.6086 7.93636ZM8.15519 18.9961V9.68323H5.07314V18.9961H8.15519Z" fill="#275CBE"/>
</svg>
