<svg width="25" height="25" viewBox="0 0 25 25" fill="none" xmlns="http://www.w3.org/2000/svg">
<path fill-rule="evenodd" clip-rule="evenodd" d="M6.15301 2.00195C3.94081 2.00195 2.14746 3.7953 2.14746 6.0075V18.0242C2.14746 20.2364 3.94081 22.0297 6.15301 22.0297H18.1697C20.3819 22.0297 22.1752 20.2364 22.1752 18.0242V6.0075C22.1752 3.7953 20.3819 2.00195 18.1697 2.00195H6.15301ZM18.3813 6.00781H16.2317L12.6473 10.0547L9.58644 6.00781H5.15163L10.4323 12.924L5.43202 18.6719H7.58166L11.4604 14.2418L14.8484 18.6719H19.1757L13.6614 11.3819L18.3813 6.00781ZM16.6709 17.4101H15.4793L7.6798 7.22281H8.96024L16.6709 17.4101Z" fill="#275CBE"/>
</svg>
