<svg width="25" height="25" viewBox="0 0 25 25" fill="none" xmlns="http://www.w3.org/2000/svg">
<g clip-path="url(#clip0_0_197)">
<path d="M23.7274 4.95294C23.5074 3.57662 22.2405 2.37387 20.8385 2.21431C15.1168 1.59505 9.34433 1.59523 3.62272 2.21486C2.22567 2.37387 0.958821 3.5764 0.737716 4.95794C0.0422435 9.47068 0.0425077 14.0623 0.7385 18.5749C0.958709 19.9513 2.22567 21.1539 3.62742 21.3132C6.48533 21.6229 9.35807 21.7779 12.2329 21.7778C15.1078 21.7779 17.9805 21.6229 20.8385 21.3132L20.843 21.3128C22.2402 21.154 23.5073 19.9514 23.7283 18.5697C24.4237 14.057 24.4234 9.46552 23.7274 4.95294ZM16.3121 12.5039L10.9384 16.062C10.8036 16.1513 10.6468 16.2026 10.4849 16.2103C10.323 16.2181 10.162 16.1821 10.0191 16.1061C9.8762 16.0302 9.75672 15.9171 9.67342 15.779C9.59011 15.6409 9.54611 15.4829 9.54609 15.3219V8.20572C9.54609 8.04471 9.5901 7.88672 9.6734 7.7486C9.75671 7.61048 9.8762 7.49741 10.0191 7.42144C10.1621 7.34547 10.3231 7.30946 10.485 7.31724C10.6469 7.32503 10.8037 7.37631 10.9385 7.46563L16.3122 11.0237C16.4349 11.105 16.5355 11.215 16.605 11.3441C16.6746 11.4732 16.711 11.6174 16.711 11.7638C16.711 11.9103 16.6746 12.0544 16.605 12.1835C16.5355 12.3126 16.4349 12.4227 16.3122 12.5039H16.3121Z" fill="#275CBE"/>
</g>
<defs>
<clipPath id="clip0_0_197">
<rect width="24.0333" height="24.0333" fill="white" transform="translate(0.216309)"/>
</clipPath>
</defs>
</svg>
