<svg width="25" height="25" viewBox="0 0 25 25" fill="none" xmlns="http://www.w3.org/2000/svg">
<path d="M5.73214 1.75C3.70636 1.75 2.0752 3.38116 2.0752 5.40695V18.1208C2.0752 20.1466 3.70636 21.7778 5.73214 21.7778H12.623V13.9482H10.5526V11.1293H12.623V8.72092C12.623 6.8288 13.8462 5.09151 16.6642 5.09151C17.8051 5.09151 18.6488 5.20104 18.6488 5.20104L18.5825 7.83345C18.5825 7.83345 17.722 7.82532 16.7831 7.82532C15.7669 7.82532 15.6039 8.29352 15.6039 9.0708V11.1293H18.6632L18.5299 13.9482H15.6039V21.7778H18.446C20.4718 21.7778 22.103 20.1466 22.103 18.1208V5.40697C22.103 3.38118 20.4718 1.75002 18.446 1.75002H5.73212L5.73214 1.75Z" fill="#275CBE"/>
</svg>
