<svg width="314" height="289" viewBox="0 0 314 289" fill="none" xmlns="http://www.w3.org/2000/svg">
<path d="M187.706 123.035L162.651 234.136C161.993 237.041 158.263 237.917 156.388 235.609L139.152 214.578L137.177 212.171L136.659 211.534L132.769 206.799C131.512 205.267 129.238 205.048 127.702 206.301L104.861 225.183L104.363 225.601L28.3004 288.493H-79.3398L84.3348 153.317C85.8508 152.064 86.0703 149.835 84.8135 148.303L70.9695 131.411L70.4309 130.775L65.6833 124.985C63.7682 122.657 65.4239 119.155 68.4361 119.155L111.305 118.996L121.857 118.956L138.095 118.896L140.848 118.877L147.59 118.857L151.959 118.837L163.748 118.797L173.623 118.757L184.155 118.717C186.489 118.678 188.205 120.806 187.706 123.035Z" fill="url(#paint0_linear_136_389)"/>
<path d="M-4.11719 288.51H57.7021L108.47 246.528C109.208 245.931 110.285 246.031 110.884 246.767L125.147 264.156C126.045 265.251 127.82 264.833 128.139 263.46L139.15 214.595L142.801 198.439C143.04 197.364 142.222 196.35 141.125 196.369H140.746H140.088L73.3814 196.628C71.9451 196.628 71.1472 198.299 72.0648 199.414L83.7544 213.679C84.3529 214.396 84.2531 215.47 83.5151 216.067L-4.11719 288.51Z" fill="white"/>
<path d="M239.593 211.037C238.575 209.843 238.356 208.211 239.014 206.779C239.672 205.346 241.069 204.471 242.645 204.451L293.492 204.272L309.331 204.212H309.351C310.568 204.212 311.725 204.749 312.483 205.724C313.241 206.679 313.52 207.933 313.261 209.127L298.819 270.945C298.46 272.437 297.362 273.551 295.846 273.929C294.35 274.287 292.854 273.81 291.857 272.616L280.666 259.444C279.03 257.515 276.177 257.236 274.203 258.828L236.999 288.553H238.037L274.622 259.345C276.337 257.992 278.771 258.211 280.187 259.882L291.378 273.073C292.515 274.426 294.31 275.003 296.026 274.586C297.741 274.168 299.058 272.855 299.457 271.124L313.899 209.306C314.219 207.913 313.899 206.48 313.002 205.366C312.124 204.252 310.788 203.615 309.371 203.615H309.351L293.652 203.675L242.665 203.854C240.829 203.854 239.214 204.889 238.456 206.56C237.697 208.211 237.957 210.101 239.134 211.494L246.914 220.666C247.612 221.502 247.951 222.557 247.851 223.631C247.751 224.705 247.213 225.68 246.355 226.377L168.438 288.513H169.475L246.734 226.834C247.731 226.038 248.33 224.924 248.45 223.651C248.569 222.397 248.19 221.164 247.372 220.209L239.593 211.037Z" fill="white"/>
<g opacity="0.3">
<path d="M83.8563 82.103C83.8563 82.103 86.0506 77.2085 91.6161 77.8252C97.1817 78.442 96.5234 83.3365 99.1565 82.8789C101.81 82.4213 105.52 82.8789 106.298 85.943C107.096 89.007 110.667 87.3158 110.806 89.9222C110.946 92.5287 106.697 94.379 101.81 92.071C96.9024 89.7631 94.5286 93.8617 87.6464 93.1255C80.7643 92.3894 79.9066 91.4741 75.8371 91.9318C71.7677 92.3894 71.8674 89.1662 73.7027 87.0174C75.5379 84.8686 83.0584 85.0675 83.8563 82.103Z" fill="#F7F0F7"/>
</g>
<g opacity="0.3">
<path d="M69.3713 13.1223C69.3713 13.1223 72.2239 6.75541 79.465 7.55127C86.6863 8.34712 85.8285 14.7339 89.2795 14.137C92.7306 13.5401 97.5381 14.137 98.5754 18.1162C99.6127 22.0955 104.261 19.9069 104.42 23.2893C104.6 26.6717 99.094 29.0791 92.7106 26.0748C86.3472 23.0903 83.2352 28.4027 74.2985 27.4277C65.3417 26.4727 64.2446 25.2789 58.9384 25.8758C53.6322 26.4727 53.7718 22.2746 56.1855 19.4891C58.5793 16.7036 68.334 16.9623 69.3713 13.1223Z" fill="#F7F0F7"/>
</g>
<g opacity="0.3">
<path d="M284.357 120.208C284.357 120.208 279.509 110.399 267.281 111.633C255.033 112.866 256.489 122.695 250.664 121.76C244.839 120.845 236.681 121.76 234.925 127.908C233.17 134.056 225.31 130.674 225.011 135.886C224.712 141.099 234.047 144.78 244.839 140.184C255.631 135.588 260.878 143.765 276.038 142.273C291.199 140.781 293.074 138.95 302.051 139.866C311.027 140.781 310.808 134.315 306.739 130.017C302.629 125.739 286.112 126.137 284.357 120.208Z" fill="#F7F0F7"/>
</g>
<g opacity="0.3">
<path d="M233.409 92.9504C233.409 92.9504 231.035 88.1952 225.03 88.7921C219.026 89.389 219.744 94.1641 216.872 93.7065C214.019 93.2687 210.009 93.7065 209.152 96.6909C208.294 99.6754 204.424 98.024 204.284 100.571C204.145 103.098 208.713 104.888 214.019 102.66C219.305 100.431 221.899 104.391 229.339 103.675C236.78 102.958 237.698 102.063 242.106 102.501C246.515 102.938 246.415 99.8147 244.4 97.7255C242.385 95.6364 234.266 95.8354 233.409 92.9504Z" fill="#F7F0F7"/>
</g>
<g opacity="0.3">
<path d="M273.684 57.8703C273.684 57.8703 270.851 52.1998 263.69 52.9161C256.528 53.6323 257.366 59.3028 253.955 58.7855C250.544 58.2483 245.756 58.7855 244.739 62.347C243.722 65.9084 239.114 63.9387 238.934 66.9629C238.754 69.9872 244.22 72.1161 250.544 69.45C256.867 66.7839 259.939 71.5192 268.796 70.6636C277.673 69.8081 278.77 68.7337 284.017 69.2709C289.263 69.8081 289.143 66.0676 286.75 63.5805C284.376 61.0736 274.701 61.2924 273.684 57.8703Z" fill="#F7F0F7"/>
</g>
<path d="M167.437 9.8418C167.437 9.8418 165.641 13.8609 159.238 12.5079C152.835 11.155 144.377 15.8306 147.409 19.8895C150.421 23.9483 138.113 21.9985 138.592 29.9172C139.071 37.836 144.756 44.2426 156.346 40.0047C167.935 35.7867 173.98 14.9751 173.98 14.9751L167.437 9.8418Z" fill="#30262A"/>
<path d="M177.931 21.1448C182.559 22.6171 191.595 25.1638 191.595 25.1638C191.994 24.8057 191.157 9.74414 191.157 9.74414L196.183 9.9829C196.183 9.9829 201.031 28.3472 196.024 32.048C190.897 35.8482 178.769 30.7149 178.769 30.7149C178.769 30.7149 174.959 20.2096 177.931 21.1448Z" fill="#EA9A81"/>
<path d="M192.217 28.725C192.178 28.725 192.158 28.7051 192.118 28.6852C191.38 27.5909 191.499 25.2829 191.499 25.1835C191.499 25.1238 191.559 25.084 191.619 25.084C191.679 25.084 191.719 25.1437 191.719 25.2034C191.719 25.2233 191.599 27.5312 192.297 28.5857C192.337 28.6255 192.317 28.7051 192.257 28.7449C192.257 28.725 192.237 28.725 192.217 28.725Z" fill="#E47E6A"/>
<path d="M151.122 56.6396C151.561 58.3905 158.802 60.1414 167.54 58.1518C176.277 56.1621 181.723 55.3066 182.541 52.8991C182.541 52.8991 174.701 49.7953 165.964 51.7849C157.246 53.7746 150.683 54.8689 151.122 56.6396Z" fill="#30262A"/>
<path d="M183.099 32.984C187.547 30.1985 186.61 23.7521 186.61 23.7521C186.61 23.7521 180.565 21.7227 173.903 20.509C171.449 20.0514 170.472 19.9121 169.235 19.9121C153.356 19.9121 151.142 55.6659 151.082 56.3424C167.819 52.3631 182.54 52.9202 182.54 52.9202C184.096 40.1467 183.258 33.6207 183.099 32.984Z" fill="#FFBE02"/>
<path d="M180.449 32.3846C180.449 32.3846 185.197 26.7937 186.633 23.7496C186.633 23.7496 181.666 21.3421 175.402 20.0488L180.449 32.3846Z" fill="#FFBE02"/>
<path d="M173.801 20.1695C173.801 20.1695 160.476 18.6176 153.594 23.2534L162.191 29.9386L173.801 20.1695Z" fill="#FFBE02"/>
<path d="M162.112 29.7554C161.274 30.8895 158.601 30.412 156.167 28.7009C153.713 26.9898 152.417 24.6819 153.255 23.5478C154.092 22.4137 156.765 22.8912 159.199 24.6023C161.653 26.3134 162.949 28.6213 162.112 29.7554Z" fill="#30262A"/>
<path d="M141.824 57.4928C144.976 49.8725 150.123 40.7799 156.785 33.0999C158.321 31.3092 158.94 30.6526 159.997 29.7573C160.855 29.0211 160.436 26.7132 159.099 25.2806C157.843 23.9277 155.429 23.3308 154.93 23.669C154.072 24.2261 152.935 25.4597 151.18 27.4095C145.076 34.2141 140.767 41.8941 135.84 54.8267L141.824 57.4928Z" fill="#EA9A81"/>
<path d="M134.405 56.7176C135.562 54.7678 136.639 53.6934 136.639 53.6934C136.639 53.6934 141.487 54.9269 141.626 55.3846C141.945 56.459 142.065 58.7072 142.364 59.7817C142.484 60.2592 142.803 61.8509 142.344 62.0299C141.945 62.1692 141.068 60.9953 140.709 60.3984C139.572 63.3431 136.539 67.1433 138.434 60.7566C138.434 60.7566 138.434 60.7566 138.415 60.7566C138.155 61.3734 136.639 65.3526 135.901 64.6762C135.243 64.0793 136.24 61.055 136.659 60.0204L136.639 60.0005C136.121 61.0152 134.624 63.94 134.186 63.1839C133.627 62.2289 135.023 59.1251 135.023 59.1251C135.023 59.1251 133.886 61.9504 133.128 60.9356C132.61 60.2393 133.707 58.0308 134.186 57.0757C134.245 56.9166 134.325 56.8171 134.405 56.7176Z" fill="#EA9A81"/>
<path d="M175.36 22.6945C173.525 23.5301 170.314 21.4609 168.957 19.909C168.957 19.909 170.712 19.5907 170.992 18.9938C171.411 18.1382 172.129 15.6313 172.129 15.6313V15.0543L173.625 9.86133L174.004 14.9946L174.104 16.2481V16.3078L174.203 17.6209V17.6408L174.243 18.0785L174.303 18.954C174.363 19.6702 174.582 19.8891 175.44 20.0483C175.4 20.0483 176.916 21.9782 175.36 22.6945Z" fill="#EA9A81"/>
<path d="M167.838 113.322C167.838 113.322 167.898 115.491 169.434 116.088C170.97 116.705 175.438 117.242 173.763 118.635C172.805 119.43 168.297 118.913 167.04 118.913C165.763 118.913 164.567 119.43 163.629 118.635C162.592 117.739 163.629 113.322 163.629 113.322C163.629 113.322 164.726 113.859 165.704 113.84C167.14 113.82 167.838 113.322 167.838 113.322Z" fill="#30262A"/>
<path d="M142.026 113.322C142.026 113.322 142.085 115.491 143.621 116.088C145.157 116.705 149.626 117.242 147.95 118.635C146.993 119.43 142.484 118.913 141.228 118.913C139.951 118.913 138.754 119.43 137.816 118.635C136.779 117.739 137.816 113.322 137.816 113.322C137.816 113.322 138.914 113.859 139.891 113.84C141.307 113.82 142.026 113.322 142.026 113.322Z" fill="#30262A"/>
<path d="M178.029 54.1109C178.727 54.1308 179.306 54.7078 179.286 55.4041C179.246 58.4483 178.907 66.9241 176.533 80.5134C174.339 93.0282 171.745 105.642 170.489 111.691C170.03 113.86 168.115 115.431 165.841 115.531L164.624 115.571C162.17 115.67 160.175 113.661 160.355 111.273L163.427 70.3662C163.427 70.3662 158.32 56.1602 161.751 55.2848C166.599 54.0711 174.877 54.0711 178.029 54.1109Z" fill="url(#paint1_linear_136_389)"/>
<path d="M173.743 54.1113L145.895 112.487C144.818 114.875 134.006 116.208 136.6 109.881L152.039 57.4539C152.279 56.8172 158.203 55.8224 158.822 55.6434C162.173 54.6883 173.743 54.1113 173.743 54.1113Z" fill="url(#paint2_linear_136_389)"/>
<path d="M162.948 76.8699C162.928 76.8699 162.908 76.8699 162.888 76.8699C162.808 76.85 162.788 76.7705 162.808 76.6909L166.538 67.1406C167.895 63.7383 169.75 61.7686 171.086 60.7141C172.543 59.5601 173.64 59.2418 173.7 59.2219C173.779 59.202 173.859 59.2418 173.879 59.3213C173.899 59.4009 173.859 59.4805 173.779 59.5004C173.74 59.5203 169.351 60.8733 166.798 67.2401L163.067 76.7904C163.047 76.8302 163.007 76.8699 162.948 76.8699Z" fill="#020202"/>
<path d="M181.922 13.2464L194.31 11.1572C194.948 11.0578 195.367 10.4609 195.267 9.82419L195.048 8.49114C194.948 7.85445 194.35 7.43663 193.712 7.53611L181.324 9.62523C180.685 9.72471 180.266 10.3216 180.366 10.9583L180.586 12.2913C180.705 12.928 181.304 13.3459 181.922 13.2464Z" fill="#222C65"/>
<path d="M189.822 13.2049L201.771 11.1953C202.589 11.0561 203.148 10.2801 203.008 9.44446L202.509 6.46C202.37 5.64425 201.592 5.08715 200.754 5.22643L188.805 7.23596C187.987 7.37524 187.429 8.1512 187.568 8.98684L188.067 11.9713C188.227 12.787 189.005 13.3441 189.822 13.2049Z" fill="url(#paint3_linear_136_389)"/>
<path d="M199.696 12.4109L218.647 9.22751C219.325 9.10813 219.784 8.47145 219.664 7.79497L218.787 2.60202C218.667 1.92554 218.029 1.46792 217.35 1.5873L198.4 4.77072C197.721 4.8901 197.263 5.52678 197.382 6.20326L198.26 11.3962C198.38 12.0727 199.018 12.5104 199.696 12.4109Z" fill="#222C65"/>
<path d="M219.803 9.62294L220.74 9.46377C221.259 9.38418 221.618 8.88677 221.518 8.36947L220.322 1.30626C220.242 0.78895 219.743 0.430815 219.224 0.530297L218.287 0.689468C217.768 0.769053 217.409 1.26646 217.509 1.78377L218.706 8.84698C218.805 9.36429 219.284 9.70252 219.803 9.62294Z" fill="url(#paint4_linear_136_389)"/>
<path d="M193.608 5.24573C193.608 5.24573 194.885 4.70852 195.384 5.88241C196.002 7.37464 195.344 9.82189 194.945 8.88676C194.586 8.05111 194.426 7.11598 194.426 7.11598C194.426 7.11598 194.885 10.0805 194.167 9.96117C193.429 9.84179 193.03 7.41443 193.03 7.41443C193.03 7.41443 193.229 10.2596 192.571 9.90148C191.913 9.56324 191.613 7.87205 191.613 7.87205C191.613 7.87205 191.913 10.1601 191.155 9.74231C190.417 9.32448 190.556 7.63329 190.436 6.89712C190.337 6.20075 190.756 5.9222 191.434 5.86251C191.434 5.86251 192.072 5.42479 192.531 5.50438C192.711 5.54417 192.85 5.3651 192.97 5.32531C193.169 5.26562 193.608 5.24573 193.608 5.24573Z" fill="#EA9A81"/>
<path d="M174.164 17.6186C173.027 17.2206 172.109 15.9473 172.109 15.9473H172.269L174.064 16.3054L174.164 17.6186Z" fill="#30262A"/>
<path d="M167.438 9.8418C167.438 9.8418 167.777 10.6377 167.517 12.4283C167.158 15.0149 170.31 15.6714 170.968 14.8557C171.048 14.7562 170.29 10.5183 170.29 10.5183L169.253 10.1004L167.438 9.8418Z" fill="#30262A"/>
<path d="M178.989 9.98132C178.51 6.73821 175.857 4.39044 173.084 4.76847C170.311 5.1465 168.456 8.07127 168.935 11.3144C169.413 14.5575 172.066 16.9053 174.839 16.5272C177.612 16.1691 179.467 13.2244 178.989 9.98132Z" fill="#EA9A81"/>
<path d="M175.276 5.85996C175.156 6.05893 176.413 8.9837 170.608 10.4958C164.803 12.0079 167.336 4.72587 171.685 3.98971C177.949 2.9352 179.465 6.81499 179.066 8.34701C178.667 9.87903 175.276 5.85996 175.276 5.85996Z" fill="#30262A"/>
<path d="M171.108 9.44336C171.108 9.44336 169.053 12.1891 170.27 14.5368C170.27 14.5368 168.654 13.2635 168.535 12.7263C168.415 12.1891 168.495 10.1795 168.495 10.1795L171.108 9.44336Z" fill="#30262A"/>
<path d="M169.736 12.111C170.374 12.5487 171.192 12.489 171.531 11.9916C171.87 11.4942 171.631 10.7182 170.992 10.2805C170.354 9.8428 169.536 9.90249 169.197 10.3999C168.858 10.9172 169.097 11.6733 169.736 12.111Z" fill="#EA9A81"/>
<path d="M174.458 10.6391C174.498 10.6192 174.518 10.5993 174.518 10.5595C174.538 10.4999 174.498 10.4402 174.438 10.4203C174.399 10.4203 173.581 10.1417 173.002 10.9376C172.962 10.9973 172.982 11.057 173.022 11.0968C173.082 11.1365 173.142 11.1166 173.182 11.0769C173.661 10.6789 174.339 10.6391 174.379 10.659C174.399 10.659 174.438 10.659 174.458 10.6391Z" fill="#080435"/>
<path d="M178.111 10.419C178.151 10.419 178.17 10.3992 178.21 10.3793C178.25 10.3395 178.23 10.2599 178.19 10.2201C178.151 10.2002 177.512 9.64309 176.654 10.1803C176.595 10.2201 176.575 10.2798 176.615 10.3395C176.654 10.3992 176.714 10.3992 176.774 10.3793C177.373 10.1803 178.011 10.3992 178.051 10.419C178.071 10.419 178.091 10.419 178.111 10.419Z" fill="#080435"/>
<path d="M177.055 11.6148C176.975 11.8735 177.075 12.1122 177.255 12.1719C177.454 12.2316 177.674 12.0724 177.733 11.8138C177.813 11.5551 177.713 11.3164 177.534 11.2567C177.334 11.197 177.115 11.3562 177.055 11.6148Z" fill="#080435"/>
<path d="M177.056 13.3027C177.056 13.3027 176.857 14.8745 175.62 14.9541C174.304 15.0337 173.984 13.6609 173.984 13.6609C173.984 13.6609 175.78 14.019 177.056 13.3027Z" fill="white"/>
<path d="M173.064 12.1879C173.044 12.1879 173.024 12.168 173.004 12.168C172.984 12.1481 173.004 12.1083 173.024 12.0884C173.762 11.6706 174.481 11.8496 174.5 11.8695C174.54 11.8695 174.54 11.9093 174.54 11.9491C174.54 11.9889 174.5 11.9889 174.461 11.9889C174.461 11.9889 173.762 11.8098 173.064 12.2078C173.084 12.168 173.084 12.1879 173.064 12.1879Z" fill="#020202"/>
<path d="M130.156 288.512H191.976L264.547 228.504C265.285 227.907 266.362 228.007 266.961 228.743L281.224 246.133C282.121 247.227 283.897 246.809 284.216 245.436L293.492 204.271L293.631 203.634L298.858 180.435C299.097 179.36 298.279 178.346 297.182 178.366L229.438 178.624C228.002 178.624 227.204 180.295 228.122 181.41L239.811 195.675C240.41 196.412 240.31 197.466 239.572 198.063L130.156 288.512Z" fill="url(#paint5_linear_136_389)"/>
<defs>
<linearGradient id="paint0_linear_136_389" x1="-79.3398" y1="203.608" x2="187.793" y2="203.608" gradientUnits="userSpaceOnUse">
<stop stop-color="#FFCE00"/>
<stop offset="1" stop-color="#FFB003"/>
</linearGradient>
<linearGradient id="paint1_linear_136_389" x1="159.775" y1="84.799" x2="182.341" y2="84.799" gradientUnits="userSpaceOnUse">
<stop stop-color="#02CDFF"/>
<stop offset="0.494791" stop-color="#03C0FF"/>
<stop offset="1" stop-color="#005AFD"/>
</linearGradient>
<linearGradient id="paint2_linear_136_389" x1="135.073" y1="84.2533" x2="179.797" y2="84.2533" gradientUnits="userSpaceOnUse">
<stop stop-color="#02CDFF"/>
<stop offset="0.494791" stop-color="#03C0FF"/>
<stop offset="1" stop-color="#005AFD"/>
</linearGradient>
<linearGradient id="paint3_linear_136_389" x1="187.547" y1="9.21581" x2="203.03" y2="9.21581" gradientUnits="userSpaceOnUse">
<stop stop-color="#FFCE00"/>
<stop offset="1" stop-color="#FFB003"/>
</linearGradient>
<linearGradient id="paint4_linear_136_389" x1="217.492" y1="5.07428" x2="221.535" y2="5.07428" gradientUnits="userSpaceOnUse">
<stop stop-color="#FFCE00"/>
<stop offset="1" stop-color="#FFB003"/>
</linearGradient>
<linearGradient id="paint5_linear_136_389" x1="125.094" y1="233.371" x2="326.11" y2="233.371" gradientUnits="userSpaceOnUse">
<stop stop-color="#02CDFF"/>
<stop offset="0.494791" stop-color="#03C0FF"/>
<stop offset="1" stop-color="#005AFD"/>
</linearGradient>
</defs>
</svg>
