<svg width="104" height="105" viewBox="0 0 104 105" fill="none" xmlns="http://www.w3.org/2000/svg">
<circle cx="51.9999" cy="52.0038" r="51.9999" fill="#C3F0FF"/>
<path d="M51.9629 45.0391C49.9738 45.0391 48.0661 45.8292 46.6596 47.2358C45.2531 48.6423 44.4629 50.5499 44.4629 52.5391C44.4629 54.5282 45.2531 56.4358 46.6596 57.8424C48.0661 59.2489 49.9738 60.0391 51.9629 60.0391C53.952 60.0391 55.8597 59.2489 57.2662 57.8424C58.6727 56.4358 59.4629 54.5282 59.4629 52.5391C59.4629 50.5499 58.6727 48.6423 57.2662 47.2358C55.8597 45.8292 53.952 45.0391 51.9629 45.0391ZM51.9629 65.0391C48.6477 65.0391 45.4683 63.7221 43.1241 61.3779C40.7799 59.0337 39.4629 55.8543 39.4629 52.5391C39.4629 49.2239 40.7799 46.0444 43.1241 43.7002C45.4683 41.356 48.6477 40.0391 51.9629 40.0391C55.2781 40.0391 58.4575 41.356 60.8017 43.7002C63.1459 46.0444 64.4629 49.2239 64.4629 52.5391C64.4629 55.8543 63.1459 59.0337 60.8017 61.3779C58.4575 63.7221 55.2781 65.0391 51.9629 65.0391ZM51.9629 33.7891C39.4629 33.7891 28.7879 41.5641 24.4629 52.5391C28.7879 63.5141 39.4629 71.2891 51.9629 71.2891C64.4629 71.2891 75.1379 63.5141 79.4629 52.5391C75.1379 41.5641 64.4629 33.7891 51.9629 33.7891Z" fill="#275CBE"/>
</svg>
