<svg width="72" height="73" viewBox="0 0 72 73" fill="none" xmlns="http://www.w3.org/2000/svg">
<circle cx="36" cy="36.0039" r="36" fill="#C3F0FF"/>
<path d="M44.4005 20.7752C44.4005 20.3575 44.5665 19.9569 44.8618 19.6615C45.1572 19.3661 45.5578 19.2002 45.9755 19.2002H51.2255C51.6432 19.2002 52.0438 19.3661 52.3392 19.6615C52.6346 19.9569 52.8005 20.3575 52.8005 20.7752V26.0252C52.8005 26.4429 52.6346 26.8435 52.3392 27.1389C52.0438 27.4343 51.6432 27.6002 51.2255 27.6002C50.8078 27.6002 50.4072 27.4343 50.1118 27.1389C49.8165 26.8435 49.6505 26.4429 49.6505 26.0252V24.5762L40.2635 33.9632C39.9682 34.2581 39.5679 34.4238 39.1505 34.4238C38.7331 34.4238 38.3328 34.2581 38.0375 33.9632L32.8505 28.7762L23.9885 37.6382C23.8443 37.7929 23.6704 37.9171 23.4772 38.0031C23.284 38.0892 23.0755 38.1355 22.864 38.1392C22.6525 38.143 22.4425 38.1041 22.2464 38.0249C22.0502 37.9456 21.8721 37.8277 21.7225 37.6782C21.573 37.5286 21.4551 37.3505 21.3759 37.1544C21.2966 36.9582 21.2577 36.7482 21.2615 36.5367C21.2652 36.3252 21.3115 36.1167 21.3976 35.9235C21.4837 35.7303 21.6078 35.5564 21.7625 35.4122L31.7375 25.4372C32.0328 25.1422 32.4331 24.9766 32.8505 24.9766C33.2679 24.9766 33.6682 25.1422 33.9635 25.4372L39.1505 30.6242L47.4245 22.3502H45.9755C45.5578 22.3502 45.1572 22.1843 44.8618 21.8889C44.5665 21.5935 44.4005 21.1929 44.4005 20.7752ZM22.8755 44.4002C23.2932 44.4002 23.6938 44.5661 23.9892 44.8615C24.2846 45.1569 24.4505 45.5575 24.4505 45.9752V51.2252C24.4505 51.6429 24.2846 52.0435 23.9892 52.3389C23.6938 52.6343 23.2932 52.8002 22.8755 52.8002C22.4578 52.8002 22.0572 52.6343 21.7618 52.3389C21.4665 52.0435 21.3005 51.6429 21.3005 51.2252V45.9752C21.3005 45.5575 21.4665 45.1569 21.7618 44.8615C22.0572 44.5661 22.4578 44.4002 22.8755 44.4002ZM32.8505 39.6752C32.8505 39.2575 32.6846 38.8569 32.3892 38.5615C32.0938 38.2661 31.6932 38.1002 31.2755 38.1002C30.8578 38.1002 30.4572 38.2661 30.1618 38.5615C29.8665 38.8569 29.7005 39.2575 29.7005 39.6752V51.2252C29.7005 51.6429 29.8665 52.0435 30.1618 52.3389C30.4572 52.6343 30.8578 52.8002 31.2755 52.8002C31.6932 52.8002 32.0938 52.6343 32.3892 52.3389C32.6846 52.0435 32.8505 51.6429 32.8505 51.2252V39.6752ZM39.6755 42.3002C40.0932 42.3002 40.4938 42.4661 40.7892 42.7615C41.0846 43.0569 41.2505 43.4575 41.2505 43.8752V51.2252C41.2505 51.6429 41.0846 52.0435 40.7892 52.3389C40.4938 52.6343 40.0932 52.8002 39.6755 52.8002C39.2578 52.8002 38.8572 52.6343 38.5618 52.3389C38.2665 52.0435 38.1005 51.6429 38.1005 51.2252V43.8752C38.1005 43.4575 38.2665 43.0569 38.5618 42.7615C38.8572 42.4661 39.2578 42.3002 39.6755 42.3002ZM49.6505 35.4752C49.6505 35.0575 49.4846 34.6569 49.1892 34.3615C48.8938 34.0661 48.4932 33.9002 48.0755 33.9002C47.6578 33.9002 47.2572 34.0661 46.9618 34.3615C46.6665 34.6569 46.5005 35.0575 46.5005 35.4752V51.2252C46.5005 51.6429 46.6665 52.0435 46.9618 52.3389C47.2572 52.6343 47.6578 52.8002 48.0755 52.8002C48.4932 52.8002 48.8938 52.6343 49.1892 52.3389C49.4846 52.0435 49.6505 51.6429 49.6505 51.2252V35.4752Z" fill="#275CBE"/>
</svg>
