<svg width="72" height="73" viewBox="0 0 72 73" fill="none" xmlns="http://www.w3.org/2000/svg">
<circle cx="36" cy="36.0039" r="36" fill="#C3F0FF"/>
<path d="M35.6668 52.6663L39.2918 49.333C42.2641 46.5552 44.2363 44.4369 45.2085 42.978C46.1807 41.5191 46.6668 39.9575 46.6668 38.293C46.6668 37.5708 46.5696 36.8902 46.3752 36.2513C46.1807 35.6125 45.8891 34.973 45.5002 34.333H48.3335C49.2502 34.333 50.0352 34.6597 50.6885 35.313C51.3418 35.9663 51.6679 36.7508 51.6668 37.6663V50.9997C51.6668 51.4719 51.5068 51.868 51.1868 52.188C50.8668 52.508 50.4713 52.6674 50.0002 52.6663H35.6668ZM18.3335 50.9997V37.6663C18.3335 36.7497 18.6529 35.9647 19.2918 35.3113C19.9307 34.658 20.7224 34.3319 21.6668 34.333H24.4585C24.0974 34.9163 23.8196 35.548 23.6252 36.228C23.4307 36.908 23.3335 37.5958 23.3335 38.2913C23.3335 39.958 23.7991 41.5208 24.7302 42.9797C25.6613 44.4386 27.6402 46.5563 30.6668 49.333L34.3335 52.6663H20.0002C19.5279 52.6663 19.1318 52.5063 18.8118 52.1863C18.4918 51.8663 18.3324 51.4708 18.3335 50.9997ZM46.6668 32.6663C45.2502 32.6663 44.0624 32.1869 43.1035 31.228C42.1446 30.2691 41.6657 29.0819 41.6668 27.6663C41.6668 26.2775 42.1463 25.0969 43.1052 24.1247C44.0641 23.1525 45.2513 22.6663 46.6668 22.6663C48.0557 22.6663 49.2363 23.1525 50.2085 24.1247C51.1807 25.0969 51.6668 26.2775 51.6668 27.6663C51.6668 29.083 51.1807 30.2708 50.2085 31.2297C49.2363 32.1886 48.0557 32.6675 46.6668 32.6663ZM35.0002 30.9997C33.3613 30.9997 31.9791 30.4375 30.8535 29.313C29.7279 28.1886 29.1657 26.8063 29.1668 25.1663C29.1668 23.5552 29.7291 22.1802 30.8535 21.0413C31.9779 19.9025 33.3602 19.333 35.0002 19.333C36.6113 19.333 37.9863 19.9025 39.1252 21.0413C40.2641 22.1802 40.8335 23.5552 40.8335 25.1663C40.8335 26.8052 40.2641 28.1875 39.1252 29.313C37.9863 30.4386 36.6113 31.0008 35.0002 30.9997ZM26.6668 38.2913C26.6668 39.4302 27.2224 40.708 28.3335 42.1247C29.4446 43.5413 31.6529 45.7497 34.9585 48.7497C38.2363 45.8052 40.4518 43.618 41.6052 42.188C42.7585 40.758 43.3346 39.4591 43.3335 38.2913C43.3335 37.1802 42.9585 36.2425 42.2085 35.478C41.4585 34.7136 40.5557 34.3319 39.5002 34.333C38.8613 34.333 38.2641 34.4858 37.7085 34.7913C37.1529 35.0969 36.6668 35.4719 36.2502 35.9163L34.9585 37.2497L33.7085 35.958C33.3196 35.5413 32.8752 35.1663 32.3752 34.833C31.8752 34.4997 31.2502 34.333 30.5002 34.333C29.3613 34.333 28.4374 34.7152 27.7285 35.4797C27.0196 36.2441 26.6657 37.1808 26.6668 38.2897V38.2913ZM23.3335 32.6663C21.9168 32.6663 20.7291 32.1869 19.7702 31.228C18.8113 30.2691 18.3324 29.0819 18.3335 27.6663C18.3335 26.2775 18.8129 25.0969 19.7718 24.1247C20.7307 23.1525 21.9179 22.6663 23.3335 22.6663C24.7224 22.6663 25.9029 23.1525 26.8752 24.1247C27.8474 25.0969 28.3335 26.2775 28.3335 27.6663C28.3335 29.083 27.8474 30.2708 26.8752 31.2297C25.9029 32.1886 24.7224 32.6675 23.3335 32.6663Z" fill="#275CBE"/>
</svg>
