<svg width="72" height="73" viewBox="0 0 72 73" fill="none" xmlns="http://www.w3.org/2000/svg">
<circle cx="36" cy="36.0039" r="36" fill="#C3F0FF"/>
<path d="M42.0001 19.5C40.8066 19.5 39.662 19.9741 38.8181 20.818C37.9742 21.6619 37.5001 22.8065 37.5001 24V30C37.5001 31.1935 37.9742 32.3381 38.8181 33.182C39.662 34.0259 40.8066 34.5 42.0001 34.5H48.0001C49.1936 34.5 50.3382 34.0259 51.1821 33.182C52.026 32.3381 52.5001 31.1935 52.5001 30V24C52.5001 22.8065 52.026 21.6619 51.1821 20.818C50.3382 19.9741 49.1936 19.5 48.0001 19.5H42.0001ZM24.2821 21.1845C25.4116 18.939 28.5886 18.939 29.7181 21.1845L34.1656 30.027C35.1961 32.0745 33.7216 34.5 31.4476 34.5H22.5526C20.2786 34.5 18.8041 32.0745 19.8346 30.027L24.2821 21.1845ZM20.9371 40.5825C21.5508 39.7426 22.3317 39.0389 23.2306 38.5155L32.9986 49.503C32.3923 50.3093 31.6302 50.9857 30.7576 51.492L20.9386 40.5825H20.9371ZM19.5001 45C19.5001 44.211 19.6216 43.449 19.8481 42.735L28.5016 52.35C27.2616 52.6019 25.9781 52.5374 24.7696 52.1625C23.2427 51.6859 21.908 50.734 20.9601 49.4455C20.0122 48.1571 19.5007 46.5996 19.5001 45ZM34.5001 45C34.5001 45.8295 34.3651 46.629 34.1161 47.3745L25.4761 37.6545C26.4775 37.448 27.5105 37.4475 28.5121 37.653C30.1012 37.9807 31.5412 38.8145 32.6164 40.0296C33.6917 41.2446 34.3441 42.7754 34.4761 44.3925L34.4776 44.4225C34.4926 44.613 34.5001 44.8065 34.5001 45ZM46.4311 37.8525C45.9897 37.6207 45.4986 37.4996 45.0001 37.4996C44.5016 37.4996 44.0105 37.6207 43.5691 37.8525L39.0811 40.2165C38.6067 40.4627 38.2087 40.8338 37.93 41.2899C37.6513 41.746 37.5027 42.2695 37.5001 42.804V47.196C37.5001 48.276 38.1076 49.2705 39.0811 49.7835L43.5691 52.1475C44.0105 52.3793 44.5016 52.5004 45.0001 52.5004C45.4986 52.5004 45.9897 52.3793 46.4311 52.1475L50.9191 49.7835C51.3935 49.5373 51.7916 49.1662 52.0702 48.7101C52.3489 48.254 52.4975 47.7305 52.5001 47.196V42.804C52.5001 41.724 51.8926 40.7295 50.9191 40.2165L46.4311 37.8525Z" fill="#275CBE"/>
</svg>
