<svg width="32" height="32" viewBox="0 0 32 32" fill="none" xmlns="http://www.w3.org/2000/svg">
<path d="M16 30L12.3333 26.2857H7.44445C6.77222 26.2857 6.19656 26.043 5.71745 25.5577C5.23834 25.0724 4.99919 24.4897 5 23.8095V6.47619C5 5.79524 5.23956 5.2121 5.71867 4.72676C6.19778 4.24143 6.77304 3.99918 7.44445 4H24.5556C25.2278 4 25.8034 4.24267 26.2826 4.728C26.7617 5.21334 27.0008 5.79607 27 6.47619V23.8095C27 24.4905 26.7604 25.0736 26.2813 25.559C25.8022 26.0443 25.227 26.2865 24.5556 26.2857H19.6667L16 30ZM15.8778 22.5714C16.3056 22.5714 16.6673 22.4216 16.9631 22.122C17.2589 21.8224 17.4064 21.4563 17.4056 21.0238C17.4056 20.5905 17.2577 20.224 16.9619 19.9244C16.6661 19.6248 16.3047 19.4754 15.8778 19.4762C15.45 19.4762 15.0882 19.626 14.7924 19.9256C14.4967 20.2252 14.3492 20.5913 14.35 21.0238C14.35 21.4571 14.4979 21.8236 14.7937 22.1232C15.0894 22.4229 15.4508 22.5723 15.8778 22.5714ZM14.7778 17.8048H17.0389C17.0389 17.454 17.0544 17.1548 17.0853 16.9071C17.1163 16.6595 17.1823 16.4222 17.2833 16.1952C17.3852 15.9683 17.5123 15.757 17.6647 15.5613C17.817 15.3657 18.0362 15.123 18.3222 14.8333C19.0352 14.1111 19.5396 13.5073 19.8353 13.022C20.1311 12.5367 20.2786 11.9849 20.2778 11.3667C20.2778 10.273 19.9111 9.39067 19.1778 8.71962C18.4444 8.04857 17.4565 7.71346 16.2139 7.71429C15.0935 7.71429 14.1414 7.99286 13.3576 8.55C12.5737 9.10714 12.0286 9.88095 11.7222 10.8714L13.7389 11.6762C13.8815 11.119 14.1667 10.6704 14.5944 10.3304C15.0222 9.99032 15.5213 9.81987 16.0917 9.81905C16.6417 9.81905 17.1 9.96886 17.4667 10.2685C17.8333 10.5681 18.0167 10.9651 18.0167 11.4595C18.0167 11.8103 17.9046 12.1817 17.6806 12.5738C17.4565 12.9659 17.0796 13.3992 16.55 13.8738C16.2037 14.1627 15.9234 14.4466 15.7091 14.7256C15.4948 15.0046 15.3168 15.2984 15.175 15.6071C15.0324 15.9167 14.9306 16.2419 14.8694 16.5828C14.8083 16.9237 14.7778 17.331 14.7778 17.8048Z" fill="white"/>
</svg>
