<svg width="32" height="32" viewBox="0 0 32 32" fill="none" xmlns="http://www.w3.org/2000/svg">
<path d="M16 19C17.6569 19 19 17.6569 19 16C19 14.3431 17.6569 13 16 13C14.3431 13 13 14.3431 13 16C13 17.6569 14.3431 19 16 19Z" fill="white"/>
<path d="M28.9484 15.6909C27.929 12.9251 26.1593 10.5333 23.8581 8.81099C21.5569 7.08869 18.825 6.11143 16 6C13.175 6.11143 10.4431 7.08869 8.14189 8.81099C5.84066 10.5333 4.071 12.9251 3.05163 15.6909C2.98279 15.8906 2.98279 16.1094 3.05163 16.3091C4.071 19.0749 5.84066 21.4667 8.14189 23.189C10.4431 24.9113 13.175 25.8886 16 26C18.825 25.8886 21.5569 24.9113 23.8581 23.189C26.1593 21.4667 27.929 19.0749 28.9484 16.3091C29.0172 16.1094 29.0172 15.8906 28.9484 15.6909ZM16 21.9091C14.8858 21.9091 13.7966 21.5625 12.8702 20.9132C11.9438 20.2639 11.2217 19.3411 10.7953 18.2613C10.3689 17.1816 10.2574 15.9934 10.4748 14.8472C10.6921 13.7009 11.2287 12.648 12.0165 11.8216C12.8044 10.9952 13.8082 10.4325 14.901 10.2045C15.9938 9.97645 17.1265 10.0935 18.1558 10.5407C19.1852 10.988 20.0651 11.7453 20.6841 12.7171C21.3031 13.6888 21.6335 14.8313 21.6335 16C21.6312 17.5665 21.0369 19.0681 19.9809 20.1757C18.925 21.2834 17.4934 21.9067 16 21.9091Z" fill="white"/>
</svg>
